<svg width="64" height="12" viewBox="0 0 64 12" fill="none" xmlns="http://www.w3.org/2000/svg">
<path fill-rule="evenodd" clip-rule="evenodd" d="M6 0H0V12H64V0H58H45H32H19H6ZM6 0L7.80566 3.51471L11.7063 4.1459L8.92163 6.94931L9.52673 10.8541L6 9.07199L2.47327 10.8541L3.07837 6.94931L0.293701 4.1459L4.19434 3.51471L6 0ZM19 0L20.8057 3.51471L24.7063 4.1459L21.9216 6.94931L22.5267 10.8541L19 9.07199L15.4733 10.8541L16.0784 6.94931L13.2937 4.1459L17.1943 3.51471L19 0ZM32 0L33.8057 3.51471L37.7063 4.1459L34.9216 6.94931L35.5267 10.8541L32 9.07199L28.4733 10.8541L29.0784 6.94931L26.2937 4.1459L30.1943 3.51471L32 0ZM45 0L46.8057 3.51471L50.7063 4.1459L47.9216 6.94931L48.5267 10.8541L45 9.07199L41.4733 10.8541L42.0784 6.94931L39.2937 4.1459L43.1943 3.51471L45 0ZM58 0L56.1943 3.51471L52.2937 4.1459L55.0784 6.94931L54.4733 10.8541L58 9.07199L61.5267 10.8541L60.9216 6.94931L63.7063 4.1459L59.8057 3.51471L58 0Z" fill="white"/>
</svg>
